# xmcd
#
# Track frame offsets:
# 150
# 19181
# 41800
# 63939
# 79817
# 89632
# 107371
# 120000
#
# Disc length: 1846 seconds
#
# Revision: 0
# Processed by: cddbd v1.5.2PL0 Copyright (c) Steve Scherf et al.
# Submitted via: Audion 3.0.2 (http://www.panic.com/audion/)
#
DISCID=59073408
DTITLE=Ronnie Drew - A New World
DYEAR=1900
DGENRE=
TTITLE0=There's Life In The Old Dog Yet
TTITLE1=Donegal Danny
TTITLE2=Gold and Silver Days
TTITLE3=Yesterday's Men
TTITLE4=Says She
TTITLE5=Home From the Sea
TTITLE6=Molly malone
TTITLE7=Take Me Home
EXTD=
EXTT0=
EXTT1=
EXTT2=
EXTT3=
EXTT4=
EXTT5=
EXTT6=
EXTT7=
PLAYORDER=
